<svg xmlns="http://www.w3.org/2000/svg" viewBox="0 0 128 128" role="img" aria-label="Regalo">
  <defs>
    <linearGradient id="g1" x1="0" y1="0" x2="0" y2="1">
      <stop stop-color="#f87171" offset="0%"/>
      <stop stop-color="#ef4444" offset="100%"/>
    </linearGradient>
    <linearGradient id="g2" x1="0" y1="0" x2="1" y2="1">
      <stop stop-color="#fca5a5" offset="0%"/>
      <stop stop-color="#ef4444" offset="100%"/>
    </linearGradient>
  </defs>
  <rect x="16" y="32" width="96" height="80" rx="12" fill="url(#g1)"/>
  <rect x="56" y="32" width="16" height="80" fill="#fff" opacity="0.9"/>
  <rect x="16" y="64" width="96" height="16" fill="#fff" opacity="0.9"/>
  <path d="M64 48c-10 0-18-6.5-18-14.5C46 26 52 20 58.5 20c4.3 0 8.2 2.5 10 6.3 1.8-3.8 5.7-6.3 10-6.3C85 20 91 26 91 33.5 91 41.5 83 48 73 48h-9Z" fill="url(#g2)"/>
  <path d="M64 48c10 0 18-6.5 18-14.5C82 26 76 20 69.5 20c-4.3 0-8.2 2.5-10 6.3-1.8-3.8-5.7-6.3-10-6.3C43 20 37 26 37 33.5 37 41.5 45 48 55 48h9Z" fill="url(#g2)" transform="translate(0 0)" opacity="0.7"/>
  <rect x="56" y="24" width="16" height="24" rx="3" fill="#fff" opacity="0.85"/>
</svg>
